<svg width="21" height="18" viewBox="0 0 21 18" fill="none" xmlns="http://www.w3.org/2000/svg">
<path d="M18.2573 2.56778C18.0483 1.85901 17.6145 1.23744 17.0213 0.796821C16.4281 0.356199 15.7077 0.120426 14.9688 0.125067C14.1124 0.125832 13.2872 0.446907 12.6556 1.02518C12.0239 1.60345 11.6314 2.39708 11.5552 3.25007H9.44584C9.3686 2.39618 8.97478 1.60207 8.34178 1.02381C7.70877 0.445546 6.88237 0.124962 6.025 0.125067C5.28706 0.121445 4.56793 0.357715 3.97593 0.798286C3.38393 1.23886 2.95112 1.85987 2.74271 2.56778L0.127086 11.2844C0.0984326 11.3815 0.0837024 11.4822 0.0833359 11.5834V12.6251C0.0849904 14.0061 0.634398 15.33 1.61102 16.3065C2.58764 17.2829 3.9117 17.832 5.29271 17.8334C6.30488 17.8317 7.29464 17.5352 8.14111 16.9803C8.98759 16.4253 9.65415 15.6359 10.0594 14.7084H10.9406C11.3459 15.6359 12.0124 16.4253 12.8589 16.9803C13.7054 17.5352 14.6951 17.8317 15.7073 17.8334C17.0885 17.832 18.4127 17.2827 19.3894 16.3061C20.366 15.3294 20.9153 14.0052 20.9167 12.624V11.5834C20.9167 11.4813 20.901 11.3813 20.8729 11.2844L18.2573 2.56778ZM5.29271 15.7501C4.46415 15.749 3.66983 15.4194 3.08385 14.8336C2.49787 14.2478 2.16805 13.4536 2.16667 12.6251C2.16667 12.5459 2.18438 12.4719 2.18959 12.3938C2.24658 11.6092 2.59786 10.8751 3.17309 10.3385C3.74832 9.80195 4.50502 9.50247 5.29167 9.50007C6.12047 9.50007 6.91533 9.82931 7.50138 10.4154C8.08743 11.0014 8.41667 11.7963 8.41667 12.6251V12.6344C8.41309 13.4611 8.08255 14.2528 7.49723 14.8365C6.91191 15.4203 6.11937 15.7487 5.29271 15.7501ZM15.7073 15.7501C14.8806 15.7487 14.0881 15.4203 13.5028 14.8365C12.9175 14.2528 12.5869 13.4611 12.5833 12.6344V12.6251C12.5833 12.2147 12.664 11.8083 12.821 11.4291C12.978 11.05 13.2081 10.7054 13.4983 10.4152C14.0842 9.82906 14.879 9.49968 15.7078 9.49955C16.5366 9.49941 17.3315 9.82852 17.9177 10.4145C18.5038 11.0004 18.8332 11.7952 18.8333 12.624C18.8322 13.4528 18.5025 14.2472 17.9165 14.8333C17.3305 15.4193 16.536 15.749 15.7073 15.7501Z" fill="#9FA2B4"/>
</svg>
